<svg width="50" height="50" viewBox="0 0 50 50" fill="none" xmlns="http://www.w3.org/2000/svg">
<path d="M24.026 18.3333C22.3684 18.3333 20.7786 18.9918 19.6065 20.1639C18.4344 21.336 17.776 22.9257 17.776 24.5833C17.776 26.2409 18.4344 27.8306 19.6065 29.0028C20.7786 30.1749 22.3684 30.8333 24.026 30.8333C25.6836 30.8333 27.2733 30.1749 28.4454 29.0028C29.6175 27.8306 30.276 26.2409 30.276 24.5833C30.276 22.9257 29.6175 21.336 28.4454 20.1639C27.2733 18.9918 25.6836 18.3333 24.026 18.3333ZM24.026 14.1667C26.7886 14.1667 29.4381 15.2641 31.3916 17.2176C33.3452 19.1711 34.4426 21.8207 34.4426 24.5833C34.4426 27.346 33.3452 29.9955 31.3916 31.949C29.4381 33.9025 26.7886 35 24.026 35C21.2633 35 18.6138 33.9025 16.6603 31.949C14.7068 29.9955 13.6093 27.346 13.6093 24.5833C13.6093 21.8207 14.7068 19.1711 16.6603 17.2176C18.6138 15.2641 21.2633 14.1667 24.026 14.1667ZM37.5676 13.6458C37.5676 14.3365 37.2933 14.9989 36.8049 15.4873C36.3165 15.9756 35.6541 16.25 34.9635 16.25C34.2728 16.25 33.6104 15.9756 33.122 15.4873C32.6336 14.9989 32.3593 14.3365 32.3593 13.6458C32.3593 12.9552 32.6336 12.2928 33.122 11.8044C33.6104 11.316 34.2728 11.0417 34.9635 11.0417C35.6541 11.0417 36.3165 11.316 36.8049 11.8044C37.2933 12.2928 37.5676 12.9552 37.5676 13.6458ZM24.026 7.91667C18.8718 7.91667 18.0301 7.93125 15.6322 8.0375C13.9989 8.11458 12.903 8.33333 11.8864 8.72917C10.9822 9.07917 10.3301 9.49792 9.63637 10.1937C8.98431 10.8237 8.48294 11.5929 8.16971 12.4437C7.77388 13.4646 7.55513 14.5583 7.48013 16.1896C7.37179 18.4896 7.35929 19.2937 7.35929 24.5833C7.35929 29.7375 7.37388 30.5792 7.48013 32.9771C7.55721 34.6083 7.77596 35.7062 8.16971 36.7208C8.52388 37.6271 8.94054 38.2792 9.63221 38.9708C10.3343 39.6708 10.9864 40.0896 11.8822 40.4354C12.9114 40.8333 14.0072 41.0542 15.6322 41.1292C17.9322 41.2375 18.7364 41.25 24.026 41.25C29.1801 41.25 30.0218 41.2354 32.4197 41.1292C34.0489 41.0521 35.1468 40.8333 36.1635 40.4396C37.0655 40.0875 37.7218 39.6688 38.4135 38.9771C39.1155 38.275 39.5343 37.6229 39.8801 36.7271C40.276 35.7 40.4968 34.6021 40.5718 32.9771C40.6801 30.6771 40.6926 29.8729 40.6926 24.5833C40.6926 19.4292 40.678 18.5875 40.5718 16.1896C40.4947 14.5604 40.276 13.4604 39.8801 12.4437C39.5661 11.5938 39.0657 10.8249 38.4155 10.1937C37.7858 9.54135 37.0166 9.03993 36.1655 8.72708C35.1447 8.33125 34.0489 8.1125 32.4197 8.0375C30.1197 7.92917 29.3155 7.91667 24.026 7.91667ZM24.026 3.75C29.6864 3.75 30.3926 3.77083 32.6135 3.875C34.8322 3.97917 36.3426 4.32708 37.6718 4.84375C39.0468 5.37292 40.2051 6.08958 41.3635 7.24583C42.4228 8.28728 43.2425 9.54706 43.7655 10.9375C44.2801 12.2646 44.6301 13.7771 44.7343 15.9958C44.8322 18.2167 44.8593 18.9229 44.8593 24.5833C44.8593 30.2437 44.8385 30.95 44.7343 33.1708C44.6301 35.3896 44.2801 36.9 43.7655 38.2292C43.244 39.6204 42.4241 40.8805 41.3635 41.9208C40.3217 42.9798 39.062 43.7995 37.6718 44.3229C36.3447 44.8375 34.8322 45.1875 32.6135 45.2917C30.3926 45.3896 29.6864 45.4167 24.026 45.4167C18.3655 45.4167 17.6593 45.3958 15.4385 45.2917C13.2197 45.1875 11.7093 44.8375 10.3801 44.3229C8.98914 43.801 7.72914 42.9811 6.68846 41.9208C5.62889 40.8796 4.80915 39.6197 4.28638 38.2292C3.76971 36.9021 3.42179 35.3896 3.31763 33.1708C3.21971 30.95 3.19263 30.2437 3.19263 24.5833C3.19263 18.9229 3.21346 18.2167 3.31763 15.9958C3.42179 13.775 3.76971 12.2667 4.28638 10.9375C4.8077 9.54621 5.62763 8.28609 6.68846 7.24583C7.72944 6.1859 8.98935 5.3661 10.3801 4.84375C11.7093 4.32708 13.2176 3.97917 15.4385 3.875C17.6593 3.77708 18.3655 3.75 24.026 3.75Z" fill="#1C222A"/>
</svg>
