<svg width="85" height="92" viewBox="0 0 85 92" fill="none" xmlns="http://www.w3.org/2000/svg">
<g clip-path="url(#clip0)">
<path d="M4.18977 17.7711C2.01245 17.7711 0.246094 19.6694 0.246094 22.0116V70.7622C0.246094 73.1039 2.0127 75.0026 4.18977 75.0026H81.0562C83.2335 75.0026 84.9999 73.1043 84.9999 70.7621V22.0115C84.9999 19.6697 83.2333 17.771 81.0562 17.771H4.18968L4.18977 17.7711ZM28.0373 24.6602C32.8752 24.6602 37.3183 26.47 40.806 29.4931C37.8716 32.3163 35.683 36.0255 34.6031 40.2297H36.2956C37.2923 36.7614 39.1029 33.6734 41.4894 31.2246C43.8759 33.6734 45.6864 36.7614 46.6832 40.2297H48.4021C47.3073 36.0476 45.1155 32.3606 42.1833 29.5558C45.6777 26.4943 50.1383 24.6601 54.997 24.6601C66.2091 24.6601 75.2981 34.4343 75.2981 46.4922C75.2981 58.5501 66.2091 68.3243 54.997 68.3243C50.0575 68.3243 45.5283 66.4285 42.0085 63.2749C45.1571 60.3295 47.4783 56.381 48.5398 51.889H46.8844C45.9418 55.6592 44.0447 59.0124 41.4893 61.6346C38.9339 59.0124 37.0395 55.6592 36.0968 51.889H34.5209C35.5886 56.3159 37.8795 60.2092 40.9808 63.1269C37.4674 66.2414 32.9559 68.1135 28.0373 68.1135C16.8252 68.1135 7.7362 58.3863 7.7362 46.3868C7.7362 34.3874 16.8252 24.6602 28.0373 24.6602ZM53.474 40.0075C51.0347 40.0075 48.6616 42.3006 48.6616 46.6061C48.6616 49.4611 49.9435 51.345 52.465 51.345C53.1779 51.3453 54.3137 51.0318 54.3137 51.0318L54.6897 48.537C54.6897 48.537 53.6532 49.1009 52.9417 49.1009C51.4428 49.1009 50.8414 47.8614 50.8414 46.5293C50.8414 43.8269 52.131 42.3399 53.5668 42.3399C54.6434 42.3399 55.5081 42.995 55.5081 42.995L55.8525 40.5686C55.8525 40.5686 54.5724 40.0075 53.474 40.0075H53.474ZM73.9818 40.2183L71.8603 40.224L71.4048 43.2257C71.4048 43.2257 70.6073 42.0609 69.3601 42.0609C67.4209 42.0609 65.8057 44.5379 65.8057 47.3865C65.8057 49.2253 66.6654 51.0289 68.4278 51.0289C69.6956 51.0289 70.3983 50.092 70.3983 50.092L70.3056 50.8922H72.3662L73.9818 40.2183ZM13.2187 40.2496L11.5289 50.9492H13.5656L14.8529 42.8811L15.0436 50.9492H16.5002L19.2177 42.8811L18.0126 50.9492H20.1764L21.8451 40.2496H18.4973L16.4129 46.814L16.3043 40.2497H13.2187L13.2187 40.2496ZM34.4972 40.9445C34.4512 40.9941 33.2656 48.3451 33.2656 49.2404C33.2656 50.566 33.9566 51.1581 34.9289 51.1485C35.6256 51.1422 36.1651 50.954 36.4147 50.8751C36.4408 50.8676 36.4915 50.8524 36.4915 50.8524L36.7537 48.9386C36.6112 48.9386 36.4012 49.0041 36.2161 49.0041C35.4902 49.0041 35.4097 48.5888 35.4559 48.2807L36.0413 44.3763H37.1457L37.4132 42.2602H36.3724L36.5842 40.9445H34.4972ZM59.1155 42.021C57.6939 42.021 56.6047 42.5251 56.6047 42.5251L56.3027 44.4902C56.3027 44.4902 57.2024 44.0886 58.562 44.0886C59.3339 44.0886 59.8994 44.1835 59.8994 44.8746C59.8994 45.2943 59.8306 45.4499 59.8306 45.4499C59.8306 45.4499 59.2202 45.393 58.938 45.393C57.1453 45.393 55.2618 46.2378 55.2618 48.7791C55.2618 50.7815 56.4983 51.2397 57.2641 51.2397C58.7268 51.2397 59.3576 50.1948 59.3909 50.1917L59.322 51.0632H61.147L61.9627 44.775C61.963 42.1068 59.8495 42.0209 59.1155 42.0209V42.021ZM24.8829 42.0324C23.4561 42.0324 22.3615 42.5365 22.3615 42.5365L22.0596 44.5016C22.0596 44.5016 22.9622 44.1 24.3267 44.1C25.1016 44.1 25.6696 44.1953 25.6696 44.886C25.6696 45.3056 25.6007 45.4613 25.6007 45.4613C25.6007 45.4613 24.9885 45.4043 24.7055 45.4043C22.9059 45.4043 21.0161 46.2478 21.0161 48.7877C21.0161 50.7889 22.255 51.2482 23.0236 51.2482C24.4917 51.2482 25.1247 50.2033 25.1584 50.2002L25.0895 51.0716H26.9223L27.7407 44.7864C27.7407 42.1197 25.6196 42.0323 24.8829 42.0323V42.0324ZM31.356 42.0324C29.8239 42.0324 28.2678 42.6974 28.2678 44.9686C28.2678 47.542 30.8607 47.2821 30.8607 48.3661C30.8607 49.0897 30.1371 49.1494 29.5788 49.1494C28.6126 49.1494 27.7438 48.7904 27.7407 48.8076L27.4626 50.7726C27.5126 50.7893 28.0506 51.0489 29.7881 51.0489C30.2546 51.0489 32.9213 51.1763 32.9213 48.1896C32.9213 45.3973 30.4528 45.9508 30.4528 44.829C30.4528 44.2706 30.8536 44.0943 31.589 44.0943C31.8811 44.0943 33.0061 44.194 33.0061 44.194L33.2656 42.2089C33.2656 42.2092 32.5397 42.0324 31.356 42.0324H31.356ZM40.9331 42.0324C38.8041 42.0329 37.2279 44.4946 37.2279 47.2754C37.2279 50.485 39.2028 51.2482 40.8855 51.2482C42.4387 51.2482 43.1235 50.8751 43.1235 50.8751L43.4943 48.6851C43.4943 48.6851 42.3127 49.2433 41.2457 49.2433C38.9721 49.2433 39.3705 47.4235 39.3705 47.4235H43.6744C43.6744 47.4235 43.9526 45.9528 43.9526 45.353C43.9526 43.8566 43.258 42.0324 40.9332 42.0324H40.9331ZM48.6432 42.1264C47.684 42.1264 46.9718 43.5133 46.9718 43.5133L47.1625 42.2403H45.1708L43.8334 51.029H46.0343C46.6576 47.2759 46.7715 44.2285 48.2591 44.7864C48.5194 43.3337 48.7721 42.7725 49.0563 42.1577C49.0563 42.1577 48.9228 42.1264 48.6431 42.1264H48.6432ZM66.4758 42.1264C65.5167 42.1264 64.8046 43.5133 64.8046 43.5133L64.9953 42.2403H63.0036L61.666 51.029H63.8643C64.488 47.2759 64.6047 44.2285 66.0917 44.7864C66.3526 43.3337 66.605 42.7725 66.889 42.1577C66.889 42.1577 66.7554 42.1264 66.4758 42.1264H66.4758ZM40.9225 44.0146C42.1317 44.0146 41.9105 45.4822 41.9105 45.6008H39.5294C39.5294 45.4494 39.7547 44.0146 40.9226 44.0146H40.9225ZM69.6939 44.1854C70.4634 44.1852 70.8592 44.7442 70.8592 46.0593C70.8592 47.2526 70.2995 48.8474 69.1403 48.8474C68.3709 48.8474 68.0093 48.1642 68.0093 47.0931C68.0093 45.3417 68.7545 44.1854 69.6938 44.1854H69.6939ZM59.1181 47.1757C59.4321 47.1762 59.497 47.209 59.5499 47.2242C59.5422 47.2228 59.5408 47.2244 59.571 47.2298C59.6108 47.6212 59.3511 49.4569 58.0957 49.4569C57.4485 49.4569 57.2827 48.9035 57.2827 48.5769C57.2827 47.94 57.591 47.1757 59.1181 47.1757ZM24.8856 47.1843C25.2422 47.1847 25.2811 47.2276 25.3412 47.2384C25.381 47.6296 25.1203 49.4626 23.8606 49.4626C23.2108 49.4626 23.0422 48.9118 23.0422 48.5854C23.0422 47.949 23.3524 47.1843 24.8856 47.1843Z" fill="#1C222A"/>
</g>
<defs>
<clipPath id="clip0">
<rect width="84.7537" height="91.133" fill="white" transform="translate(0.246094)"/>
</clipPath>
</defs>
</svg>
