<svg width="50" height="50" viewBox="0 0 50 50" fill="none" xmlns="http://www.w3.org/2000/svg">
<path d="M25 41.6667C29.4202 41.6667 33.6595 39.9108 36.7851 36.7852C39.9107 33.6596 41.6666 29.4204 41.6666 25.0001C41.6666 20.5798 39.9107 16.3406 36.7851 13.215C33.6595 10.0894 29.4202 8.33341 25 8.33341C20.5797 8.33341 16.3405 10.0894 13.2148 13.215C10.0892 16.3406 8.33329 20.5798 8.33329 25.0001C8.33329 29.4204 10.0892 33.6596 13.2148 36.7852C16.3405 39.9108 20.5797 41.6667 25 41.6667ZM25 45.8334C13.4937 45.8334 4.16663 36.5063 4.16663 25.0001C4.16663 13.4938 13.4937 4.16675 25 4.16675C36.5062 4.16675 45.8333 13.4938 45.8333 25.0001C45.8333 36.5063 36.5062 45.8334 25 45.8334ZM18.5208 27.4376L13.3166 25.8147C12.1916 25.4709 12.1854 24.6959 13.5687 24.1397L33.8458 16.3063C35.0229 15.8272 35.6895 16.4334 35.3083 17.9522L31.8562 34.2438C31.6145 35.4042 30.9166 35.6813 29.9479 35.1459L24.6333 31.2126L22.1562 33.6042C21.902 33.8501 21.6958 34.0605 21.3041 34.1126C20.9145 34.1667 20.5937 34.0501 20.3583 33.4042L18.5458 27.423L18.5208 27.4397V27.4376Z" fill="#DCDCDC"/>
</svg>
