<svg width="76" height="76" viewBox="0 0 76 76" fill="none" xmlns="http://www.w3.org/2000/svg">
<g clip-path="url(#clip0)">
<path d="M56.7401 35.186L54.4835 40.5767H58.0134L57.0301 36.4265L56.7401 35.186Z" fill="#1C222A"/>
<path d="M70.5975 10.3762H5.04245C2.2614 10.3762 -0.000244141 12.6379 -0.000244141 15.4189V60.8032C-0.000244141 63.5842 2.2614 65.8458 5.04245 65.8458H70.5975C73.3785 65.8458 75.6402 63.5842 75.6402 60.8032V15.4189C75.6402 12.6379 73.3785 10.3762 70.5975 10.3762ZM12.6216 31.6312C12.646 31.5266 12.7057 31.4335 12.7907 31.3679C12.8756 31.3022 12.9807 31.2678 13.0881 31.2706L17.5458 31.2757H17.5635C18.2165 31.3009 19.1166 31.4471 19.4015 32.433L19.4066 32.4557L20.1983 35.9049C20.2193 36.0049 20.204 36.1091 20.155 36.1988C20.106 36.2885 20.0266 36.3577 19.931 36.394C19.8333 36.4349 19.7252 36.4441 19.622 36.4201C19.5188 36.3961 19.4258 36.3402 19.3561 36.2604C17.8685 34.4526 15.6447 33.0204 12.9267 32.1178C12.8252 32.0878 12.7382 32.0218 12.6821 31.9322C12.6259 31.8426 12.6044 31.7355 12.6216 31.6312ZM23.118 45.6549L19.2931 45.6599C19.1942 45.662 19.0972 45.6329 19.0157 45.5768C18.9343 45.5207 18.8726 45.4404 18.8393 45.3473L15.5161 34.8736C15.4581 34.6921 15.5338 34.4954 15.7027 34.3895C15.8716 34.2836 16.096 34.2887 16.2574 34.4047C18.6527 36.1015 20.3672 38.2371 21.0026 39.6037C21.0118 39.6223 21.0194 39.6417 21.0253 39.6617L21.4589 41.1114L25.5007 31.5883C25.5391 31.504 25.6013 31.4328 25.6797 31.3836C25.7582 31.3343 25.8493 31.309 25.9419 31.311L29.3961 31.3084C29.5575 31.3084 29.7063 31.3816 29.792 31.5051C29.8802 31.6261 29.8954 31.7825 29.8323 31.9186L23.5542 45.3927C23.5134 45.473 23.4509 45.5401 23.3738 45.5865C23.2966 45.6329 23.208 45.6566 23.118 45.6549ZM33.4933 45.307C33.4704 45.4132 33.4108 45.508 33.3251 45.5748C33.2394 45.6416 33.133 45.6762 33.0244 45.6726H29.7416C29.6735 45.673 29.6061 45.6594 29.5436 45.6325C29.4811 45.6056 29.4249 45.566 29.3785 45.5162C29.3345 45.4692 29.3021 45.4126 29.2837 45.3509C29.2653 45.2892 29.2615 45.2241 29.2726 45.1607L31.7687 31.6589C31.7921 31.5536 31.8515 31.4597 31.9366 31.3935C32.0218 31.3272 32.1273 31.2927 32.2352 31.2958H35.5205C35.6592 31.2958 35.7928 31.3538 35.8836 31.4522C35.9718 31.5505 36.0096 31.6791 35.9869 31.8051L33.4908 45.307H33.4933ZM44.5746 37.1252C46.9271 38.1085 48.0188 39.3011 48.0037 40.882C47.9734 43.7589 45.1747 45.6196 40.8758 45.6221H40.8708C39.3706 45.6045 37.8073 45.3801 36.6879 45.017C36.5858 44.9876 36.4979 44.9219 36.4408 44.8323C36.3837 44.7427 36.3613 44.6353 36.3777 44.5304L36.7837 42.3368C36.797 42.2702 36.8256 42.2075 36.8671 42.1537C36.9087 42.0999 36.9621 42.0564 37.0232 42.0267C37.0865 41.9949 37.1558 41.9767 37.2266 41.9732C37.2973 41.9698 37.368 41.9811 37.4342 42.0065C38.7049 42.4931 39.6025 42.7251 41.2717 42.7251C42.4416 42.7251 43.7073 42.304 43.7174 41.3737C43.7249 40.766 43.1904 40.3323 41.5995 39.6541C40.0463 38.991 37.9838 37.8791 38.0116 35.8872C38.0343 33.1944 40.8783 31.3135 44.9301 31.3135C46.3598 31.3135 47.5019 31.5631 48.2079 31.7724C48.4348 31.8379 48.571 32.0472 48.5306 32.2615L48.1474 34.3441C48.1342 34.4099 48.1063 34.4717 48.0656 34.525C48.025 34.5783 47.9728 34.6216 47.9129 34.6517C47.8511 34.6837 47.7835 34.7026 47.7141 34.7074C47.6447 34.7121 47.5751 34.7026 47.5095 34.6795C46.5827 34.3458 45.6023 34.1859 44.6175 34.208C43.0694 34.208 42.2626 34.8055 42.2626 35.3955C42.255 36.0511 43.1375 36.4797 44.5746 37.1252ZM62.9351 45.5137C62.8889 45.5656 62.8322 45.6071 62.7687 45.6353C62.7052 45.6636 62.6365 45.678 62.567 45.6776H59.5993C59.4944 45.6806 59.3916 45.6482 59.3074 45.5855C59.2232 45.5228 59.1626 45.4335 59.1354 45.3322C59.0346 44.9161 58.7976 43.9051 58.6992 43.5244L55.7165 43.5218H55.6534L53.2607 43.5193C53.1724 43.7286 52.9026 44.3766 52.4866 45.3952C52.4485 45.4806 52.3861 45.553 52.3072 45.6032C52.2283 45.6534 52.1364 45.6793 52.0429 45.6776H48.6391C48.5616 45.6787 48.4849 45.6612 48.4156 45.6265C48.3463 45.5919 48.2863 45.5411 48.2407 45.4784C48.1979 45.4187 48.1721 45.3485 48.1659 45.2752C48.1596 45.202 48.1733 45.1285 48.2054 45.0624L54.2138 32.5036C54.6146 31.6665 55.2803 31.311 56.4401 31.311H59.3396C59.5615 31.311 59.7532 31.4522 59.8011 31.6539L63.0284 45.1431C63.0438 45.2078 63.0434 45.2753 63.0271 45.3398C63.0109 45.4043 62.9793 45.464 62.9351 45.5137Z" fill="#1C222A"/>
</g>
<defs>
<clipPath id="clip0">
<rect width="75.6404" height="75.6404" fill="white" transform="translate(-0.000244141 0.290771)"/>
</clipPath>
</defs>
</svg>
