<svg width="50" height="50" viewBox="0 0 50 50" fill="none" xmlns="http://www.w3.org/2000/svg">
<path d="M15.1103 38.5292L16.6187 39.4105C19.1623 40.894 22.0553 41.6728 24.9999 41.6667C28.2963 41.6667 31.5186 40.6893 34.2594 38.8579C37.0003 37.0265 39.1365 34.4236 40.3979 31.3781C41.6594 28.3327 41.9894 24.9816 41.3464 21.7486C40.7033 18.5156 39.1159 15.5458 36.785 13.215C34.4542 10.8841 31.4845 9.29675 28.2514 8.65366C25.0184 8.01057 21.6673 8.34063 18.6219 9.60209C15.5764 10.8635 12.9735 12.9998 11.1421 15.7406C9.31074 18.4814 8.33326 21.7037 8.33326 25.0001C8.33326 27.9917 9.11868 30.8605 10.5916 33.3834L11.4708 34.8917L10.1103 39.8938L15.1103 38.5292ZM4.17493 45.8334L6.99159 35.4834C5.13563 32.3019 4.16054 28.6834 4.16659 25.0001C4.16659 13.4938 13.4937 4.16675 24.9999 4.16675C36.5062 4.16675 45.8333 13.4938 45.8333 25.0001C45.8333 36.5063 36.5062 45.8334 24.9999 45.8334C21.3182 45.8393 17.7013 44.865 14.5208 43.0105L4.17493 45.8334ZM17.4812 15.2251C17.7603 15.2042 18.0416 15.2042 18.3208 15.2167C18.4333 15.2251 18.5458 15.2376 18.6583 15.2501C18.9895 15.2876 19.3541 15.4897 19.477 15.7688C20.0978 17.1772 20.702 18.5959 21.2853 20.0188C21.4145 20.3355 21.3374 20.7417 21.0916 21.1376C20.9225 21.4052 20.7396 21.6639 20.5437 21.9126C20.3083 22.2147 19.802 22.7688 19.802 22.7688C19.802 22.7688 19.5958 23.0147 19.6749 23.3209C19.7041 23.4376 19.7999 23.6063 19.8874 23.748L20.0103 23.9459C20.5437 24.8355 21.2603 25.7376 22.1353 26.5876C22.3853 26.8292 22.6291 27.0772 22.8916 27.3084C23.8666 28.1688 24.9708 28.8709 26.1624 29.3917L26.1728 29.3959C26.3499 29.473 26.4395 29.5147 26.6978 29.6251C26.827 29.6792 26.9603 29.7272 27.0958 29.7626C27.2357 29.7982 27.3831 29.7915 27.5192 29.7433C27.6553 29.6951 27.774 29.6075 27.8603 29.4917C29.3687 27.6647 29.5062 27.5459 29.5187 27.5459V27.5501C29.6235 27.4523 29.748 27.3782 29.8838 27.3325C30.0196 27.2869 30.1636 27.2709 30.3062 27.2855C30.4312 27.2938 30.5583 27.3167 30.6749 27.3688C31.7812 27.8751 33.5916 28.6647 33.5916 28.6647L34.8041 29.2084C35.0083 29.3063 35.1937 29.5376 35.1999 29.7605C35.2083 29.9001 35.2208 30.1251 35.1728 30.5376C35.1062 31.0772 34.9437 31.7251 34.7812 32.0647C34.6699 32.2964 34.5222 32.5088 34.3437 32.6938C34.1335 32.9145 33.9033 33.1154 33.6562 33.2938C33.5707 33.3581 33.4839 33.4206 33.3958 33.4813C33.1366 33.6457 32.8704 33.7986 32.5978 33.9397C32.0615 34.2246 31.469 34.3881 30.8624 34.4188C30.477 34.4397 30.0916 34.4688 29.7041 34.448C29.6874 34.448 28.5208 34.2667 28.5208 34.2667C25.5588 33.4877 22.8195 32.0281 20.5208 30.0042C20.0499 29.5897 19.6145 29.1438 19.1687 28.7001C17.3145 26.8563 15.9145 24.8667 15.0645 22.9876C14.6294 22.0653 14.3944 21.0613 14.3749 20.0417C14.3663 18.7768 14.7798 17.5452 15.5499 16.5417C15.702 16.3459 15.8458 16.1417 16.0937 15.9063C16.3583 15.6563 16.5249 15.523 16.7062 15.4313C16.9472 15.3106 17.2101 15.2397 17.4791 15.223L17.4812 15.2251Z" fill="#1C222A"/>
</svg>
